<mxfile host="app.diagrams.net" agent="Mozilla/5.0 (Windows NT 10.0; Win64; x64) AppleWebKit/537.36 (KHTML, like Gecko) Chrome/130.0.0.0 Safari/537.36" version="24.8.3">
  <diagram name="Page-1" id="6s8nYTehzailuycTaPmI">
    <mxGraphModel dx="1972" dy="656" grid="1" gridSize="10" guides="1" tooltips="1" connect="1" arrows="1" fold="1" page="1" pageScale="1" pageWidth="850" pageHeight="1100" math="0" shadow="0">
      <root>
        <mxCell id="0" />
        <mxCell id="1" parent="0" />
        <mxCell id="Hp6_giCefBjhI3oUwtmK-124" style="edgeStyle=orthogonalEdgeStyle;rounded=0;orthogonalLoop=1;jettySize=auto;html=1;entryX=0.5;entryY=0;entryDx=0;entryDy=0;" edge="1" parent="1" source="3" target="Hp6_giCefBjhI3oUwtmK-9">
          <mxGeometry relative="1" as="geometry" />
        </mxCell>
        <mxCell id="3" value="Start" style="whiteSpace=wrap;strokeWidth=2;" parent="1" vertex="1">
          <mxGeometry x="368" y="10" width="96" height="49" as="geometry" />
        </mxCell>
        <mxCell id="Hp6_giCefBjhI3oUwtmK-11" style="edgeStyle=orthogonalEdgeStyle;rounded=0;orthogonalLoop=1;jettySize=auto;html=1;entryX=0.5;entryY=0;entryDx=0;entryDy=0;" edge="1" parent="1" source="Hp6_giCefBjhI3oUwtmK-9" target="Hp6_giCefBjhI3oUwtmK-10">
          <mxGeometry relative="1" as="geometry" />
        </mxCell>
        <mxCell id="Hp6_giCefBjhI3oUwtmK-9" value="" style="rounded=0;whiteSpace=wrap;html=1;" vertex="1" parent="1">
          <mxGeometry x="356" y="110" width="120" height="60" as="geometry" />
        </mxCell>
        <mxCell id="Hp6_giCefBjhI3oUwtmK-17" style="edgeStyle=orthogonalEdgeStyle;rounded=0;orthogonalLoop=1;jettySize=auto;html=1;entryX=0.5;entryY=0;entryDx=0;entryDy=0;" edge="1" parent="1" source="Hp6_giCefBjhI3oUwtmK-10" target="Hp6_giCefBjhI3oUwtmK-16">
          <mxGeometry relative="1" as="geometry" />
        </mxCell>
        <mxCell id="Hp6_giCefBjhI3oUwtmK-10" value="" style="shape=parallelogram;perimeter=parallelogramPerimeter;whiteSpace=wrap;html=1;fixedSize=1;" vertex="1" parent="1">
          <mxGeometry x="356" y="210" width="120" height="60" as="geometry" />
        </mxCell>
        <mxCell id="Hp6_giCefBjhI3oUwtmK-18" style="edgeStyle=orthogonalEdgeStyle;rounded=0;orthogonalLoop=1;jettySize=auto;html=1;" edge="1" parent="1" source="Hp6_giCefBjhI3oUwtmK-16">
          <mxGeometry relative="1" as="geometry">
            <mxPoint x="510" y="350" as="targetPoint" />
          </mxGeometry>
        </mxCell>
        <mxCell id="Hp6_giCefBjhI3oUwtmK-103" style="edgeStyle=orthogonalEdgeStyle;rounded=0;orthogonalLoop=1;jettySize=auto;html=1;" edge="1" parent="1" source="Hp6_giCefBjhI3oUwtmK-16">
          <mxGeometry relative="1" as="geometry">
            <mxPoint x="290" y="350" as="targetPoint" />
          </mxGeometry>
        </mxCell>
        <mxCell id="Hp6_giCefBjhI3oUwtmK-16" value="" style="rhombus;whiteSpace=wrap;html=1;" vertex="1" parent="1">
          <mxGeometry x="376" y="310" width="80" height="80" as="geometry" />
        </mxCell>
        <mxCell id="Hp6_giCefBjhI3oUwtmK-79" style="edgeStyle=orthogonalEdgeStyle;rounded=0;orthogonalLoop=1;jettySize=auto;html=1;entryX=0.5;entryY=0;entryDx=0;entryDy=0;" edge="1" parent="1" source="Hp6_giCefBjhI3oUwtmK-25" target="Hp6_giCefBjhI3oUwtmK-78">
          <mxGeometry relative="1" as="geometry" />
        </mxCell>
        <mxCell id="Hp6_giCefBjhI3oUwtmK-25" value="" style="rounded=0;whiteSpace=wrap;html=1;" vertex="1" parent="1">
          <mxGeometry x="110" y="410" width="190" height="60" as="geometry" />
        </mxCell>
        <mxCell id="Hp6_giCefBjhI3oUwtmK-80" style="edgeStyle=orthogonalEdgeStyle;rounded=0;orthogonalLoop=1;jettySize=auto;html=1;" edge="1" parent="1" source="Hp6_giCefBjhI3oUwtmK-78">
          <mxGeometry relative="1" as="geometry">
            <mxPoint x="205" y="610" as="targetPoint" />
          </mxGeometry>
        </mxCell>
        <mxCell id="Hp6_giCefBjhI3oUwtmK-78" value="" style="rounded=0;whiteSpace=wrap;html=1;" vertex="1" parent="1">
          <mxGeometry x="90" y="520" width="230" height="60" as="geometry" />
        </mxCell>
        <mxCell id="Hp6_giCefBjhI3oUwtmK-82" value="" style="rounded=0;whiteSpace=wrap;html=1;" vertex="1" parent="1">
          <mxGeometry x="110" y="610" width="190" height="60" as="geometry" />
        </mxCell>
        <mxCell id="Hp6_giCefBjhI3oUwtmK-83" value="" style="shape=parallelogram;perimeter=parallelogramPerimeter;whiteSpace=wrap;html=1;fixedSize=1;" vertex="1" parent="1">
          <mxGeometry x="70" y="710" width="280" height="60" as="geometry" />
        </mxCell>
        <mxCell id="Hp6_giCefBjhI3oUwtmK-84" style="edgeStyle=orthogonalEdgeStyle;rounded=0;orthogonalLoop=1;jettySize=auto;html=1;entryX=0.479;entryY=0.05;entryDx=0;entryDy=0;entryPerimeter=0;" edge="1" parent="1" source="Hp6_giCefBjhI3oUwtmK-82" target="Hp6_giCefBjhI3oUwtmK-83">
          <mxGeometry relative="1" as="geometry" />
        </mxCell>
        <mxCell id="Hp6_giCefBjhI3oUwtmK-95" style="edgeStyle=orthogonalEdgeStyle;rounded=0;orthogonalLoop=1;jettySize=auto;html=1;" edge="1" parent="1" source="Hp6_giCefBjhI3oUwtmK-89">
          <mxGeometry relative="1" as="geometry">
            <mxPoint y="860" as="targetPoint" />
          </mxGeometry>
        </mxCell>
        <mxCell id="Hp6_giCefBjhI3oUwtmK-96" style="edgeStyle=orthogonalEdgeStyle;rounded=0;orthogonalLoop=1;jettySize=auto;html=1;" edge="1" parent="1" source="Hp6_giCefBjhI3oUwtmK-89">
          <mxGeometry relative="1" as="geometry">
            <mxPoint x="410" y="860" as="targetPoint" />
          </mxGeometry>
        </mxCell>
        <mxCell id="Hp6_giCefBjhI3oUwtmK-89" value="" style="rhombus;whiteSpace=wrap;html=1;" vertex="1" parent="1">
          <mxGeometry x="53.5" y="820" width="302.5" height="80" as="geometry" />
        </mxCell>
        <mxCell id="Hp6_giCefBjhI3oUwtmK-90" value="" style="endArrow=classic;html=1;rounded=0;entryX=0.5;entryY=0;entryDx=0;entryDy=0;" edge="1" parent="1" target="Hp6_giCefBjhI3oUwtmK-89">
          <mxGeometry width="50" height="50" relative="1" as="geometry">
            <mxPoint x="204.5" y="770" as="sourcePoint" />
            <mxPoint x="204.5" y="810" as="targetPoint" />
          </mxGeometry>
        </mxCell>
        <mxCell id="Hp6_giCefBjhI3oUwtmK-93" value="Yes" style="text;html=1;align=center;verticalAlign=middle;whiteSpace=wrap;rounded=0;" vertex="1" parent="1">
          <mxGeometry x="-20" y="830" width="60" height="30" as="geometry" />
        </mxCell>
        <mxCell id="Hp6_giCefBjhI3oUwtmK-108" style="edgeStyle=orthogonalEdgeStyle;rounded=0;orthogonalLoop=1;jettySize=auto;html=1;exitX=0.5;exitY=1;exitDx=0;exitDy=0;" edge="1" parent="1" source="Hp6_giCefBjhI3oUwtmK-94">
          <mxGeometry relative="1" as="geometry">
            <mxPoint x="510" y="910" as="targetPoint" />
            <Array as="points">
              <mxPoint x="406" y="860" />
              <mxPoint x="510" y="860" />
            </Array>
          </mxGeometry>
        </mxCell>
        <mxCell id="Hp6_giCefBjhI3oUwtmK-94" value="No" style="text;html=1;align=center;verticalAlign=middle;whiteSpace=wrap;rounded=0;" vertex="1" parent="1">
          <mxGeometry x="376" y="830" width="60" height="30" as="geometry" />
        </mxCell>
        <mxCell id="Hp6_giCefBjhI3oUwtmK-98" value="" style="curved=1;endArrow=classic;html=1;rounded=0;exitX=0.25;exitY=1;exitDx=0;exitDy=0;" edge="1" parent="1" source="Hp6_giCefBjhI3oUwtmK-93">
          <mxGeometry width="50" height="50" relative="1" as="geometry">
            <mxPoint x="-110" y="920" as="sourcePoint" />
            <mxPoint x="-60" y="910" as="targetPoint" />
            <Array as="points">
              <mxPoint x="10" y="860" />
              <mxPoint x="-50" y="860" />
              <mxPoint x="-60" y="860" />
              <mxPoint x="-60" y="880" />
              <mxPoint x="-60" y="890" />
            </Array>
          </mxGeometry>
        </mxCell>
        <mxCell id="Hp6_giCefBjhI3oUwtmK-99" value="" style="endArrow=none;html=1;rounded=0;" edge="1" parent="1">
          <mxGeometry width="50" height="50" relative="1" as="geometry">
            <mxPoint x="-60" y="920" as="sourcePoint" />
            <mxPoint x="-60" y="910" as="targetPoint" />
          </mxGeometry>
        </mxCell>
        <mxCell id="Hp6_giCefBjhI3oUwtmK-104" value="" style="endArrow=classic;html=1;rounded=0;entryX=0.472;entryY=-0.009;entryDx=0;entryDy=0;entryPerimeter=0;" edge="1" parent="1" target="Hp6_giCefBjhI3oUwtmK-25">
          <mxGeometry width="50" height="50" relative="1" as="geometry">
            <mxPoint x="290" y="350" as="sourcePoint" />
            <mxPoint x="200" y="390" as="targetPoint" />
            <Array as="points">
              <mxPoint x="200" y="350" />
            </Array>
          </mxGeometry>
        </mxCell>
        <mxCell id="Hp6_giCefBjhI3oUwtmK-105" value="" style="rounded=0;whiteSpace=wrap;html=1;" vertex="1" parent="1">
          <mxGeometry x="-120" y="920" width="120" height="60" as="geometry" />
        </mxCell>
        <mxCell id="Hp6_giCefBjhI3oUwtmK-109" value="Yes" style="text;html=1;align=center;verticalAlign=middle;whiteSpace=wrap;rounded=0;" vertex="1" parent="1">
          <mxGeometry x="270" y="320" width="60" height="30" as="geometry" />
        </mxCell>
        <mxCell id="Hp6_giCefBjhI3oUwtmK-111" value="" style="endArrow=none;html=1;rounded=0;" edge="1" parent="1">
          <mxGeometry width="50" height="50" relative="1" as="geometry">
            <mxPoint x="510" y="920" as="sourcePoint" />
            <mxPoint x="510" y="910" as="targetPoint" />
          </mxGeometry>
        </mxCell>
        <mxCell id="Hp6_giCefBjhI3oUwtmK-113" style="edgeStyle=orthogonalEdgeStyle;rounded=0;orthogonalLoop=1;jettySize=auto;html=1;" edge="1" parent="1">
          <mxGeometry relative="1" as="geometry">
            <mxPoint x="510" y="1000" as="targetPoint" />
            <mxPoint x="510" y="980" as="sourcePoint" />
          </mxGeometry>
        </mxCell>
        <mxCell id="Hp6_giCefBjhI3oUwtmK-114" value="" style="rounded=0;whiteSpace=wrap;html=1;" vertex="1" parent="1">
          <mxGeometry x="450" y="1000" width="120" height="60" as="geometry" />
        </mxCell>
        <mxCell id="Hp6_giCefBjhI3oUwtmK-116" value="" style="endArrow=none;html=1;rounded=0;" edge="1" parent="1">
          <mxGeometry width="50" height="50" relative="1" as="geometry">
            <mxPoint x="220" y="1100" as="sourcePoint" />
            <mxPoint x="509.65999999999997" y="1060" as="targetPoint" />
            <Array as="points">
              <mxPoint x="510" y="1100" />
            </Array>
          </mxGeometry>
        </mxCell>
        <mxCell id="Hp6_giCefBjhI3oUwtmK-118" value="" style="endArrow=none;html=1;rounded=0;" edge="1" parent="1">
          <mxGeometry width="50" height="50" relative="1" as="geometry">
            <mxPoint x="220" y="1100" as="sourcePoint" />
            <mxPoint x="-60.34" y="980" as="targetPoint" />
            <Array as="points">
              <mxPoint x="-60" y="1100" />
            </Array>
          </mxGeometry>
        </mxCell>
        <mxCell id="Hp6_giCefBjhI3oUwtmK-120" value="" style="endArrow=classic;html=1;rounded=0;" edge="1" parent="1">
          <mxGeometry width="50" height="50" relative="1" as="geometry">
            <mxPoint x="204.66" y="1100" as="sourcePoint" />
            <mxPoint x="204.66" y="1130" as="targetPoint" />
            <Array as="points">
              <mxPoint x="204.66" y="1120" />
            </Array>
          </mxGeometry>
        </mxCell>
        <mxCell id="Hp6_giCefBjhI3oUwtmK-121" value="" style="rounded=0;whiteSpace=wrap;html=1;" vertex="1" parent="1">
          <mxGeometry x="145" y="1130" width="120" height="60" as="geometry" />
        </mxCell>
        <mxCell id="Hp6_giCefBjhI3oUwtmK-123" value="" style="shape=parallelogram;perimeter=parallelogramPerimeter;whiteSpace=wrap;html=1;fixedSize=1;" vertex="1" parent="1">
          <mxGeometry x="450" y="920" width="120" height="60" as="geometry" />
        </mxCell>
      </root>
    </mxGraphModel>
  </diagram>
</mxfile>
